<svg xmlns="http://www.w3.org/2000/svg" width="24" height="24" viewBox="0 0 24 24" fill="none">
  <defs>
    <linearGradient id="line" x1="4" y1="4" x2="20" y2="20" gradientUnits="userSpaceOnUse">
      <stop stop-color="#FFFFFF" stop-opacity=".98"/>
      <stop offset=".32" stop-color="#37D7FF"/>
      <stop offset="1" stop-color="#18F0B2"/>
    </linearGradient>
    <filter id="softGlow" x="-60%" y="-60%" width="220%" height="220%">
      <feGaussianBlur stdDeviation=".75" result="blur"/>
      <feFlood flood-color="#37D7FF" flood-opacity=".55"/>
      <feComposite in2="blur" operator="in"/>
      <feMerge>
        <feMergeNode/>
        <feMergeNode in="SourceGraphic"/>
      </feMerge>
    </filter>
  </defs>
  <path d="M7.6 9.2a4 4 0 0 0 0 5.6M5.4 7a7 7 0 0 0 0 10M16.4 9.2a4 4 0 0 1 0 5.6M18.6 7a7 7 0 0 1 0 10M12 11.1a1.9 1.9 0 1 0 0 3.8 1.9 1.9 0 0 0 0-3.8z" stroke="url(#line)" stroke-width="1.55" stroke-linecap="round" stroke-linejoin="round" filter="url(#softGlow)"/>
</svg>